<?xml version="1.0" standalone="no"?><svg xmlns="http://www.w3.org/2000/svg" viewBox="0 0 1440 320"><path fill="#F0F8FF" fill-opacity="1" d="M0,288L9.6,277.3C19.2,267,38,245,58,218.7C76.8,192,96,160,115,154.7C134.4,149,154,171,173,154.7C192,139,211,85,230,85.3C249.6,85,269,139,288,138.7C307.2,139,326,85,346,58.7C364.8,32,384,32,403,74.7C422.4,117,442,203,461,213.3C480,224,499,160,518,117.3C537.6,75,557,53,576,48C595.2,43,614,53,634,96C652.8,139,672,213,691,213.3C710.4,213,730,139,749,128C768,117,787,171,806,160C825.6,149,845,75,864,69.3C883.2,64,902,128,922,181.3C940.8,235,960,277,979,293.3C998.4,309,1018,299,1037,261.3C1056,224,1075,160,1094,133.3C1113.6,107,1133,117,1152,149.3C1171.2,181,1190,235,1210,240C1228.8,245,1248,203,1267,202.7C1286.4,203,1306,245,1325,266.7C1344,288,1363,288,1382,282.7C1401.6,277,1421,267,1430,261.3L1440,256L1440,0L1430.4,0C1420.8,0,1402,0,1382,0C1363.2,0,1344,0,1325,0C1305.6,0,1286,0,1267,0C1248,0,1229,0,1210,0C1190.4,0,1171,0,1152,0C1132.8,0,1114,0,1094,0C1075.2,0,1056,0,1037,0C1017.6,0,998,0,979,0C960,0,941,0,922,0C902.4,0,883,0,864,0C844.8,0,826,0,806,0C787.2,0,768,0,749,0C729.6,0,710,0,691,0C672,0,653,0,634,0C614.4,0,595,0,576,0C556.8,0,538,0,518,0C499.2,0,480,0,461,0C441.6,0,422,0,403,0C384,0,365,0,346,0C326.4,0,307,0,288,0C268.8,0,250,0,230,0C211.2,0,192,0,173,0C153.6,0,134,0,115,0C96,0,77,0,58,0C38.4,0,19,0,10,0L0,0Z"></path></svg>